<mxfile host="app.diagrams.net" modified="2023-06-21T02:40:02.996Z" agent="Mozilla/5.0 (Windows NT 10.0; Win64; x64) AppleWebKit/537.36 (KHTML, like Gecko) Chrome/114.0.0.0 Safari/537.36" etag="I_krwR_1L_lhcqZ2gEqN" version="21.5.0" type="device">
  <diagram name="Page-1" id="CQ6uXQ9-FXk6-swU3MD2">
    <mxGraphModel dx="1247" dy="1897" grid="1" gridSize="10" guides="1" tooltips="1" connect="1" arrows="1" fold="1" page="1" pageScale="1" pageWidth="850" pageHeight="1100" math="0" shadow="0">
      <root>
        <mxCell id="0" />
        <mxCell id="1" parent="0" />
        <mxCell id="IZ9sK3yoCn2Vvp_-kfGR-1" value="" style="ellipse;whiteSpace=wrap;html=1;aspect=fixed;fillColor=#808080;" vertex="1" parent="1">
          <mxGeometry x="280" y="10" width="30" height="30" as="geometry" />
        </mxCell>
        <mxCell id="IZ9sK3yoCn2Vvp_-kfGR-10" style="edgeStyle=orthogonalEdgeStyle;rounded=0;orthogonalLoop=1;jettySize=auto;html=1;exitX=0.5;exitY=1;exitDx=0;exitDy=0;entryX=0.5;entryY=0;entryDx=0;entryDy=0;" edge="1" parent="1" source="IZ9sK3yoCn2Vvp_-kfGR-2" target="IZ9sK3yoCn2Vvp_-kfGR-3">
          <mxGeometry relative="1" as="geometry" />
        </mxCell>
        <mxCell id="IZ9sK3yoCn2Vvp_-kfGR-2" value="User enters login name and password" style="rounded=1;whiteSpace=wrap;html=1;" vertex="1" parent="1">
          <mxGeometry x="235" y="80" width="120" height="60" as="geometry" />
        </mxCell>
        <mxCell id="IZ9sK3yoCn2Vvp_-kfGR-11" style="edgeStyle=orthogonalEdgeStyle;rounded=0;orthogonalLoop=1;jettySize=auto;html=1;exitX=0;exitY=0.5;exitDx=0;exitDy=0;" edge="1" parent="1" source="IZ9sK3yoCn2Vvp_-kfGR-3" target="IZ9sK3yoCn2Vvp_-kfGR-5">
          <mxGeometry relative="1" as="geometry" />
        </mxCell>
        <mxCell id="IZ9sK3yoCn2Vvp_-kfGR-14" style="edgeStyle=orthogonalEdgeStyle;rounded=0;orthogonalLoop=1;jettySize=auto;html=1;exitX=0.5;exitY=1;exitDx=0;exitDy=0;" edge="1" parent="1" source="IZ9sK3yoCn2Vvp_-kfGR-3" target="IZ9sK3yoCn2Vvp_-kfGR-13">
          <mxGeometry relative="1" as="geometry" />
        </mxCell>
        <mxCell id="IZ9sK3yoCn2Vvp_-kfGR-3" value="Correct Login and password" style="rhombus;whiteSpace=wrap;html=1;" vertex="1" parent="1">
          <mxGeometry x="225" y="170" width="140" height="140" as="geometry" />
        </mxCell>
        <mxCell id="IZ9sK3yoCn2Vvp_-kfGR-12" style="edgeStyle=orthogonalEdgeStyle;rounded=0;orthogonalLoop=1;jettySize=auto;html=1;exitX=0.5;exitY=0;exitDx=0;exitDy=0;entryX=0;entryY=0.5;entryDx=0;entryDy=0;" edge="1" parent="1" source="IZ9sK3yoCn2Vvp_-kfGR-5" target="IZ9sK3yoCn2Vvp_-kfGR-1">
          <mxGeometry relative="1" as="geometry" />
        </mxCell>
        <mxCell id="IZ9sK3yoCn2Vvp_-kfGR-5" value="Invalid login/password" style="rounded=1;whiteSpace=wrap;html=1;" vertex="1" parent="1">
          <mxGeometry x="30" y="210" width="120" height="60" as="geometry" />
        </mxCell>
        <mxCell id="IZ9sK3yoCn2Vvp_-kfGR-7" value="" style="endArrow=classic;html=1;rounded=0;entryX=0.5;entryY=0;entryDx=0;entryDy=0;exitX=0.5;exitY=1;exitDx=0;exitDy=0;" edge="1" parent="1" source="IZ9sK3yoCn2Vvp_-kfGR-1" target="IZ9sK3yoCn2Vvp_-kfGR-2">
          <mxGeometry width="50" height="50" relative="1" as="geometry">
            <mxPoint x="260" y="60" as="sourcePoint" />
            <mxPoint x="310" y="10" as="targetPoint" />
          </mxGeometry>
        </mxCell>
        <mxCell id="IZ9sK3yoCn2Vvp_-kfGR-16" style="edgeStyle=orthogonalEdgeStyle;rounded=0;orthogonalLoop=1;jettySize=auto;html=1;exitX=0.5;exitY=1;exitDx=0;exitDy=0;entryX=0.5;entryY=0;entryDx=0;entryDy=0;" edge="1" parent="1" source="IZ9sK3yoCn2Vvp_-kfGR-13" target="IZ9sK3yoCn2Vvp_-kfGR-15">
          <mxGeometry relative="1" as="geometry" />
        </mxCell>
        <mxCell id="IZ9sK3yoCn2Vvp_-kfGR-13" value="User successfully logs in" style="rounded=1;whiteSpace=wrap;html=1;" vertex="1" parent="1">
          <mxGeometry x="235" y="360" width="120" height="60" as="geometry" />
        </mxCell>
        <mxCell id="IZ9sK3yoCn2Vvp_-kfGR-15" value="" style="ellipse;whiteSpace=wrap;html=1;aspect=fixed;fillColor=#000000;" vertex="1" parent="1">
          <mxGeometry x="280" y="460" width="30" height="30" as="geometry" />
        </mxCell>
        <mxCell id="IZ9sK3yoCn2Vvp_-kfGR-19" style="edgeStyle=orthogonalEdgeStyle;rounded=0;orthogonalLoop=1;jettySize=auto;html=1;exitX=0.5;exitY=1;exitDx=0;exitDy=0;entryX=0.5;entryY=0;entryDx=0;entryDy=0;" edge="1" parent="1" source="IZ9sK3yoCn2Vvp_-kfGR-17" target="IZ9sK3yoCn2Vvp_-kfGR-18">
          <mxGeometry relative="1" as="geometry" />
        </mxCell>
        <mxCell id="IZ9sK3yoCn2Vvp_-kfGR-17" value="" style="ellipse;whiteSpace=wrap;html=1;aspect=fixed;fillColor=#808080;" vertex="1" parent="1">
          <mxGeometry x="280" y="520" width="30" height="30" as="geometry" />
        </mxCell>
        <mxCell id="IZ9sK3yoCn2Vvp_-kfGR-25" style="edgeStyle=orthogonalEdgeStyle;rounded=0;orthogonalLoop=1;jettySize=auto;html=1;exitX=0.5;exitY=1;exitDx=0;exitDy=0;entryX=0.75;entryY=0;entryDx=0;entryDy=0;" edge="1" parent="1" source="IZ9sK3yoCn2Vvp_-kfGR-18" target="IZ9sK3yoCn2Vvp_-kfGR-20">
          <mxGeometry relative="1" as="geometry" />
        </mxCell>
        <mxCell id="IZ9sK3yoCn2Vvp_-kfGR-26" style="edgeStyle=orthogonalEdgeStyle;rounded=0;orthogonalLoop=1;jettySize=auto;html=1;exitX=0.5;exitY=1;exitDx=0;exitDy=0;entryX=0.25;entryY=0;entryDx=0;entryDy=0;" edge="1" parent="1" source="IZ9sK3yoCn2Vvp_-kfGR-18" target="IZ9sK3yoCn2Vvp_-kfGR-24">
          <mxGeometry relative="1" as="geometry" />
        </mxCell>
        <mxCell id="IZ9sK3yoCn2Vvp_-kfGR-18" value="User enters create ticket tab" style="rounded=1;whiteSpace=wrap;html=1;" vertex="1" parent="1">
          <mxGeometry x="235" y="580" width="120" height="60" as="geometry" />
        </mxCell>
        <mxCell id="IZ9sK3yoCn2Vvp_-kfGR-27" style="edgeStyle=orthogonalEdgeStyle;rounded=0;orthogonalLoop=1;jettySize=auto;html=1;exitX=0.5;exitY=1;exitDx=0;exitDy=0;entryX=0;entryY=0;entryDx=0;entryDy=0;" edge="1" parent="1" source="IZ9sK3yoCn2Vvp_-kfGR-20" target="IZ9sK3yoCn2Vvp_-kfGR-22">
          <mxGeometry relative="1" as="geometry" />
        </mxCell>
        <mxCell id="IZ9sK3yoCn2Vvp_-kfGR-20" value="User enters a Title" style="rounded=1;whiteSpace=wrap;html=1;" vertex="1" parent="1">
          <mxGeometry x="150" y="670" width="120" height="60" as="geometry" />
        </mxCell>
        <mxCell id="IZ9sK3yoCn2Vvp_-kfGR-32" style="edgeStyle=orthogonalEdgeStyle;rounded=0;orthogonalLoop=1;jettySize=auto;html=1;exitX=0.5;exitY=1;exitDx=0;exitDy=0;entryX=0.5;entryY=0;entryDx=0;entryDy=0;" edge="1" parent="1" source="IZ9sK3yoCn2Vvp_-kfGR-21" target="IZ9sK3yoCn2Vvp_-kfGR-31">
          <mxGeometry relative="1" as="geometry" />
        </mxCell>
        <mxCell id="IZ9sK3yoCn2Vvp_-kfGR-21" value="User Submits Ticket" style="rounded=1;whiteSpace=wrap;html=1;" vertex="1" parent="1">
          <mxGeometry x="235" y="920" width="120" height="60" as="geometry" />
        </mxCell>
        <mxCell id="IZ9sK3yoCn2Vvp_-kfGR-23" style="edgeStyle=orthogonalEdgeStyle;rounded=0;orthogonalLoop=1;jettySize=auto;html=1;exitX=0.5;exitY=1;exitDx=0;exitDy=0;entryX=0.5;entryY=0;entryDx=0;entryDy=0;" edge="1" parent="1" source="IZ9sK3yoCn2Vvp_-kfGR-22" target="IZ9sK3yoCn2Vvp_-kfGR-21">
          <mxGeometry relative="1" as="geometry" />
        </mxCell>
        <mxCell id="IZ9sK3yoCn2Vvp_-kfGR-29" style="edgeStyle=orthogonalEdgeStyle;rounded=0;orthogonalLoop=1;jettySize=auto;html=1;exitX=0;exitY=0.5;exitDx=0;exitDy=0;entryX=0.25;entryY=1;entryDx=0;entryDy=0;" edge="1" parent="1" source="IZ9sK3yoCn2Vvp_-kfGR-22" target="IZ9sK3yoCn2Vvp_-kfGR-20">
          <mxGeometry relative="1" as="geometry" />
        </mxCell>
        <mxCell id="IZ9sK3yoCn2Vvp_-kfGR-30" style="edgeStyle=orthogonalEdgeStyle;rounded=0;orthogonalLoop=1;jettySize=auto;html=1;exitX=1;exitY=0.5;exitDx=0;exitDy=0;entryX=0.75;entryY=1;entryDx=0;entryDy=0;" edge="1" parent="1" source="IZ9sK3yoCn2Vvp_-kfGR-22" target="IZ9sK3yoCn2Vvp_-kfGR-24">
          <mxGeometry relative="1" as="geometry" />
        </mxCell>
        <mxCell id="IZ9sK3yoCn2Vvp_-kfGR-22" value="Title, Description &lt;br&gt;details filled" style="rhombus;whiteSpace=wrap;html=1;" vertex="1" parent="1">
          <mxGeometry x="225" y="750" width="140" height="140" as="geometry" />
        </mxCell>
        <mxCell id="IZ9sK3yoCn2Vvp_-kfGR-28" style="edgeStyle=orthogonalEdgeStyle;rounded=0;orthogonalLoop=1;jettySize=auto;html=1;exitX=0.5;exitY=1;exitDx=0;exitDy=0;entryX=1;entryY=0;entryDx=0;entryDy=0;" edge="1" parent="1" source="IZ9sK3yoCn2Vvp_-kfGR-24" target="IZ9sK3yoCn2Vvp_-kfGR-22">
          <mxGeometry relative="1" as="geometry" />
        </mxCell>
        <mxCell id="IZ9sK3yoCn2Vvp_-kfGR-24" value="User enters a Description" style="rounded=1;whiteSpace=wrap;html=1;" vertex="1" parent="1">
          <mxGeometry x="330" y="670" width="120" height="60" as="geometry" />
        </mxCell>
        <mxCell id="IZ9sK3yoCn2Vvp_-kfGR-31" value="" style="ellipse;whiteSpace=wrap;html=1;aspect=fixed;fillColor=#000000;" vertex="1" parent="1">
          <mxGeometry x="280" y="1020" width="30" height="30" as="geometry" />
        </mxCell>
        <mxCell id="IZ9sK3yoCn2Vvp_-kfGR-33" style="edgeStyle=orthogonalEdgeStyle;rounded=0;orthogonalLoop=1;jettySize=auto;html=1;exitX=0.5;exitY=1;exitDx=0;exitDy=0;entryX=0.5;entryY=0;entryDx=0;entryDy=0;" edge="1" parent="1" target="IZ9sK3yoCn2Vvp_-kfGR-36">
          <mxGeometry relative="1" as="geometry">
            <mxPoint x="645" y="550" as="sourcePoint" />
          </mxGeometry>
        </mxCell>
        <mxCell id="IZ9sK3yoCn2Vvp_-kfGR-34" style="edgeStyle=orthogonalEdgeStyle;rounded=0;orthogonalLoop=1;jettySize=auto;html=1;exitX=0.5;exitY=1;exitDx=0;exitDy=0;entryX=0.5;entryY=0;entryDx=0;entryDy=0;" edge="1" parent="1" source="IZ9sK3yoCn2Vvp_-kfGR-36" target="IZ9sK3yoCn2Vvp_-kfGR-38">
          <mxGeometry relative="1" as="geometry" />
        </mxCell>
        <mxCell id="IZ9sK3yoCn2Vvp_-kfGR-36" value="User enters View ticket tab" style="rounded=1;whiteSpace=wrap;html=1;" vertex="1" parent="1">
          <mxGeometry x="585" y="570" width="120" height="60" as="geometry" />
        </mxCell>
        <mxCell id="IZ9sK3yoCn2Vvp_-kfGR-50" style="edgeStyle=orthogonalEdgeStyle;rounded=0;orthogonalLoop=1;jettySize=auto;html=1;exitX=0.5;exitY=1;exitDx=0;exitDy=0;entryX=0.5;entryY=0;entryDx=0;entryDy=0;" edge="1" parent="1" source="IZ9sK3yoCn2Vvp_-kfGR-38" target="IZ9sK3yoCn2Vvp_-kfGR-49">
          <mxGeometry relative="1" as="geometry" />
        </mxCell>
        <mxCell id="IZ9sK3yoCn2Vvp_-kfGR-38" value="User selects their ticket" style="rounded=1;whiteSpace=wrap;html=1;" vertex="1" parent="1">
          <mxGeometry x="585" y="650" width="120" height="60" as="geometry" />
        </mxCell>
        <mxCell id="IZ9sK3yoCn2Vvp_-kfGR-39" style="edgeStyle=orthogonalEdgeStyle;rounded=0;orthogonalLoop=1;jettySize=auto;html=1;exitX=0.5;exitY=1;exitDx=0;exitDy=0;entryX=0.5;entryY=0;entryDx=0;entryDy=0;" edge="1" parent="1" source="IZ9sK3yoCn2Vvp_-kfGR-40" target="IZ9sK3yoCn2Vvp_-kfGR-47">
          <mxGeometry relative="1" as="geometry" />
        </mxCell>
        <mxCell id="IZ9sK3yoCn2Vvp_-kfGR-40" value="User Submits Comment" style="rounded=1;whiteSpace=wrap;html=1;" vertex="1" parent="1">
          <mxGeometry x="585" y="970" width="120" height="60" as="geometry" />
        </mxCell>
        <mxCell id="IZ9sK3yoCn2Vvp_-kfGR-41" style="edgeStyle=orthogonalEdgeStyle;rounded=0;orthogonalLoop=1;jettySize=auto;html=1;exitX=0.5;exitY=1;exitDx=0;exitDy=0;entryX=0.5;entryY=0;entryDx=0;entryDy=0;" edge="1" parent="1" source="IZ9sK3yoCn2Vvp_-kfGR-44" target="IZ9sK3yoCn2Vvp_-kfGR-40">
          <mxGeometry relative="1" as="geometry" />
        </mxCell>
        <mxCell id="IZ9sK3yoCn2Vvp_-kfGR-44" value="If ticket is closed&lt;br&gt;reopen ticket" style="rhombus;whiteSpace=wrap;html=1;" vertex="1" parent="1">
          <mxGeometry x="575" y="810" width="140" height="140" as="geometry" />
        </mxCell>
        <mxCell id="IZ9sK3yoCn2Vvp_-kfGR-47" value="" style="ellipse;whiteSpace=wrap;html=1;aspect=fixed;fillColor=#000000;" vertex="1" parent="1">
          <mxGeometry x="630" y="1050" width="30" height="30" as="geometry" />
        </mxCell>
        <mxCell id="IZ9sK3yoCn2Vvp_-kfGR-48" value="" style="ellipse;whiteSpace=wrap;html=1;aspect=fixed;fillColor=#808080;" vertex="1" parent="1">
          <mxGeometry x="630" y="520" width="30" height="30" as="geometry" />
        </mxCell>
        <mxCell id="IZ9sK3yoCn2Vvp_-kfGR-51" style="edgeStyle=orthogonalEdgeStyle;rounded=0;orthogonalLoop=1;jettySize=auto;html=1;exitX=0.5;exitY=1;exitDx=0;exitDy=0;entryX=0.5;entryY=0;entryDx=0;entryDy=0;" edge="1" parent="1" source="IZ9sK3yoCn2Vvp_-kfGR-49" target="IZ9sK3yoCn2Vvp_-kfGR-44">
          <mxGeometry relative="1" as="geometry" />
        </mxCell>
        <mxCell id="IZ9sK3yoCn2Vvp_-kfGR-49" value="User inputs their comment" style="rounded=1;whiteSpace=wrap;html=1;" vertex="1" parent="1">
          <mxGeometry x="585" y="730" width="120" height="60" as="geometry" />
        </mxCell>
        <mxCell id="IZ9sK3yoCn2Vvp_-kfGR-52" style="edgeStyle=orthogonalEdgeStyle;rounded=0;orthogonalLoop=1;jettySize=auto;html=1;exitX=0.5;exitY=1;exitDx=0;exitDy=0;entryX=0.5;entryY=0;entryDx=0;entryDy=0;" edge="1" parent="1" target="IZ9sK3yoCn2Vvp_-kfGR-54">
          <mxGeometry relative="1" as="geometry">
            <mxPoint x="645" y="-60" as="sourcePoint" />
          </mxGeometry>
        </mxCell>
        <mxCell id="IZ9sK3yoCn2Vvp_-kfGR-53" style="edgeStyle=orthogonalEdgeStyle;rounded=0;orthogonalLoop=1;jettySize=auto;html=1;exitX=0.5;exitY=1;exitDx=0;exitDy=0;entryX=0.5;entryY=0;entryDx=0;entryDy=0;" edge="1" parent="1" source="IZ9sK3yoCn2Vvp_-kfGR-54" target="IZ9sK3yoCn2Vvp_-kfGR-56">
          <mxGeometry relative="1" as="geometry" />
        </mxCell>
        <mxCell id="IZ9sK3yoCn2Vvp_-kfGR-54" value="User enters My Account tab" style="rounded=1;whiteSpace=wrap;html=1;" vertex="1" parent="1">
          <mxGeometry x="585" y="-40" width="120" height="60" as="geometry" />
        </mxCell>
        <mxCell id="IZ9sK3yoCn2Vvp_-kfGR-55" style="edgeStyle=orthogonalEdgeStyle;rounded=0;orthogonalLoop=1;jettySize=auto;html=1;exitX=0.5;exitY=1;exitDx=0;exitDy=0;entryX=0.5;entryY=0;entryDx=0;entryDy=0;" edge="1" parent="1" source="IZ9sK3yoCn2Vvp_-kfGR-56" target="IZ9sK3yoCn2Vvp_-kfGR-64">
          <mxGeometry relative="1" as="geometry" />
        </mxCell>
        <mxCell id="IZ9sK3yoCn2Vvp_-kfGR-56" value="User inputs their desired new password" style="rounded=1;whiteSpace=wrap;html=1;" vertex="1" parent="1">
          <mxGeometry x="585" y="40" width="120" height="60" as="geometry" />
        </mxCell>
        <mxCell id="IZ9sK3yoCn2Vvp_-kfGR-57" style="edgeStyle=orthogonalEdgeStyle;rounded=0;orthogonalLoop=1;jettySize=auto;html=1;exitX=0.5;exitY=1;exitDx=0;exitDy=0;entryX=0.5;entryY=0;entryDx=0;entryDy=0;" edge="1" parent="1" source="IZ9sK3yoCn2Vvp_-kfGR-58" target="IZ9sK3yoCn2Vvp_-kfGR-61">
          <mxGeometry relative="1" as="geometry" />
        </mxCell>
        <mxCell id="IZ9sK3yoCn2Vvp_-kfGR-58" value="Users password is changed" style="rounded=1;whiteSpace=wrap;html=1;" vertex="1" parent="1">
          <mxGeometry x="585" y="360" width="120" height="60" as="geometry" />
        </mxCell>
        <mxCell id="IZ9sK3yoCn2Vvp_-kfGR-59" style="edgeStyle=orthogonalEdgeStyle;rounded=0;orthogonalLoop=1;jettySize=auto;html=1;exitX=0.5;exitY=1;exitDx=0;exitDy=0;entryX=0.5;entryY=0;entryDx=0;entryDy=0;" edge="1" parent="1" source="IZ9sK3yoCn2Vvp_-kfGR-60" target="IZ9sK3yoCn2Vvp_-kfGR-58">
          <mxGeometry relative="1" as="geometry" />
        </mxCell>
        <mxCell id="IZ9sK3yoCn2Vvp_-kfGR-65" style="edgeStyle=orthogonalEdgeStyle;rounded=0;orthogonalLoop=1;jettySize=auto;html=1;exitX=0;exitY=0.5;exitDx=0;exitDy=0;entryX=0;entryY=0.5;entryDx=0;entryDy=0;" edge="1" parent="1" source="IZ9sK3yoCn2Vvp_-kfGR-60" target="IZ9sK3yoCn2Vvp_-kfGR-56">
          <mxGeometry relative="1" as="geometry" />
        </mxCell>
        <mxCell id="IZ9sK3yoCn2Vvp_-kfGR-60" value="New Passwords Match" style="rhombus;whiteSpace=wrap;html=1;" vertex="1" parent="1">
          <mxGeometry x="575" y="200" width="140" height="140" as="geometry" />
        </mxCell>
        <mxCell id="IZ9sK3yoCn2Vvp_-kfGR-61" value="" style="ellipse;whiteSpace=wrap;html=1;aspect=fixed;fillColor=#000000;" vertex="1" parent="1">
          <mxGeometry x="630" y="440" width="30" height="30" as="geometry" />
        </mxCell>
        <mxCell id="IZ9sK3yoCn2Vvp_-kfGR-62" value="" style="ellipse;whiteSpace=wrap;html=1;aspect=fixed;fillColor=#808080;" vertex="1" parent="1">
          <mxGeometry x="630" y="-90" width="30" height="30" as="geometry" />
        </mxCell>
        <mxCell id="IZ9sK3yoCn2Vvp_-kfGR-63" style="edgeStyle=orthogonalEdgeStyle;rounded=0;orthogonalLoop=1;jettySize=auto;html=1;exitX=0.5;exitY=1;exitDx=0;exitDy=0;entryX=0.5;entryY=0;entryDx=0;entryDy=0;" edge="1" parent="1" source="IZ9sK3yoCn2Vvp_-kfGR-64" target="IZ9sK3yoCn2Vvp_-kfGR-60">
          <mxGeometry relative="1" as="geometry" />
        </mxCell>
        <mxCell id="IZ9sK3yoCn2Vvp_-kfGR-64" value="User repeats new password" style="rounded=1;whiteSpace=wrap;html=1;" vertex="1" parent="1">
          <mxGeometry x="585" y="120" width="120" height="60" as="geometry" />
        </mxCell>
        <mxCell id="IZ9sK3yoCn2Vvp_-kfGR-66" style="edgeStyle=orthogonalEdgeStyle;rounded=0;orthogonalLoop=1;jettySize=auto;html=1;exitX=0.5;exitY=1;exitDx=0;exitDy=0;entryX=0.5;entryY=0;entryDx=0;entryDy=0;" edge="1" parent="1" target="IZ9sK3yoCn2Vvp_-kfGR-68" source="IZ9sK3yoCn2Vvp_-kfGR-77">
          <mxGeometry relative="1" as="geometry">
            <mxPoint x="200" y="-580" as="sourcePoint" />
          </mxGeometry>
        </mxCell>
        <mxCell id="IZ9sK3yoCn2Vvp_-kfGR-84" style="edgeStyle=orthogonalEdgeStyle;rounded=0;orthogonalLoop=1;jettySize=auto;html=1;exitX=0.5;exitY=1;exitDx=0;exitDy=0;entryX=0.5;entryY=0;entryDx=0;entryDy=0;" edge="1" parent="1" source="IZ9sK3yoCn2Vvp_-kfGR-68" target="IZ9sK3yoCn2Vvp_-kfGR-70">
          <mxGeometry relative="1" as="geometry" />
        </mxCell>
        <mxCell id="IZ9sK3yoCn2Vvp_-kfGR-68" value="Admin enters Create Account tab" style="rounded=1;whiteSpace=wrap;html=1;" vertex="1" parent="1">
          <mxGeometry x="30" y="-430" width="120" height="60" as="geometry" />
        </mxCell>
        <mxCell id="IZ9sK3yoCn2Vvp_-kfGR-85" style="edgeStyle=orthogonalEdgeStyle;rounded=0;orthogonalLoop=1;jettySize=auto;html=1;exitX=1;exitY=0.5;exitDx=0;exitDy=0;entryX=0;entryY=0.5;entryDx=0;entryDy=0;" edge="1" parent="1" source="IZ9sK3yoCn2Vvp_-kfGR-70" target="IZ9sK3yoCn2Vvp_-kfGR-79">
          <mxGeometry relative="1" as="geometry" />
        </mxCell>
        <mxCell id="IZ9sK3yoCn2Vvp_-kfGR-70" value="Admin inputs the name and email" style="rounded=1;whiteSpace=wrap;html=1;" vertex="1" parent="1">
          <mxGeometry x="30" y="-350" width="120" height="60" as="geometry" />
        </mxCell>
        <mxCell id="IZ9sK3yoCn2Vvp_-kfGR-71" style="edgeStyle=orthogonalEdgeStyle;rounded=0;orthogonalLoop=1;jettySize=auto;html=1;exitX=0.5;exitY=1;exitDx=0;exitDy=0;entryX=0.5;entryY=0;entryDx=0;entryDy=0;" edge="1" parent="1" source="IZ9sK3yoCn2Vvp_-kfGR-72" target="IZ9sK3yoCn2Vvp_-kfGR-76">
          <mxGeometry relative="1" as="geometry" />
        </mxCell>
        <mxCell id="IZ9sK3yoCn2Vvp_-kfGR-72" value="Account created" style="rounded=1;whiteSpace=wrap;html=1;" vertex="1" parent="1">
          <mxGeometry x="30" y="-140" width="120" height="60" as="geometry" />
        </mxCell>
        <mxCell id="IZ9sK3yoCn2Vvp_-kfGR-76" value="" style="ellipse;whiteSpace=wrap;html=1;aspect=fixed;fillColor=#000000;" vertex="1" parent="1">
          <mxGeometry x="70" y="-50" width="30" height="30" as="geometry" />
        </mxCell>
        <mxCell id="IZ9sK3yoCn2Vvp_-kfGR-86" style="edgeStyle=orthogonalEdgeStyle;rounded=0;orthogonalLoop=1;jettySize=auto;html=1;exitX=0.5;exitY=1;exitDx=0;exitDy=0;entryX=0.5;entryY=0;entryDx=0;entryDy=0;" edge="1" parent="1" source="IZ9sK3yoCn2Vvp_-kfGR-79" target="IZ9sK3yoCn2Vvp_-kfGR-80">
          <mxGeometry relative="1" as="geometry" />
        </mxCell>
        <mxCell id="IZ9sK3yoCn2Vvp_-kfGR-79" value="Admin selects an Account type" style="rounded=1;whiteSpace=wrap;html=1;" vertex="1" parent="1">
          <mxGeometry x="200" y="-430" width="120" height="60" as="geometry" />
        </mxCell>
        <mxCell id="IZ9sK3yoCn2Vvp_-kfGR-87" style="edgeStyle=orthogonalEdgeStyle;rounded=0;orthogonalLoop=1;jettySize=auto;html=1;exitX=0.5;exitY=1;exitDx=0;exitDy=0;entryX=0.5;entryY=0;entryDx=0;entryDy=0;" edge="1" parent="1" source="IZ9sK3yoCn2Vvp_-kfGR-80" target="IZ9sK3yoCn2Vvp_-kfGR-81">
          <mxGeometry relative="1" as="geometry" />
        </mxCell>
        <mxCell id="IZ9sK3yoCn2Vvp_-kfGR-80" value="Admin enters temporary password" style="rounded=1;whiteSpace=wrap;html=1;" vertex="1" parent="1">
          <mxGeometry x="200" y="-350" width="120" height="60" as="geometry" />
        </mxCell>
        <mxCell id="IZ9sK3yoCn2Vvp_-kfGR-94" style="edgeStyle=orthogonalEdgeStyle;rounded=0;orthogonalLoop=1;jettySize=auto;html=1;exitX=1;exitY=0.5;exitDx=0;exitDy=0;entryX=0;entryY=0;entryDx=0;entryDy=0;" edge="1" parent="1" source="IZ9sK3yoCn2Vvp_-kfGR-81" target="IZ9sK3yoCn2Vvp_-kfGR-82">
          <mxGeometry relative="1" as="geometry" />
        </mxCell>
        <mxCell id="IZ9sK3yoCn2Vvp_-kfGR-81" value="Admin confirms temporary password" style="rounded=1;whiteSpace=wrap;html=1;" vertex="1" parent="1">
          <mxGeometry x="30" y="-260" width="120" height="60" as="geometry" />
        </mxCell>
        <mxCell id="IZ9sK3yoCn2Vvp_-kfGR-93" style="edgeStyle=orthogonalEdgeStyle;rounded=0;orthogonalLoop=1;jettySize=auto;html=1;exitX=0;exitY=0.5;exitDx=0;exitDy=0;entryX=0.5;entryY=0;entryDx=0;entryDy=0;" edge="1" parent="1" source="IZ9sK3yoCn2Vvp_-kfGR-82" target="IZ9sK3yoCn2Vvp_-kfGR-72">
          <mxGeometry relative="1" as="geometry" />
        </mxCell>
        <mxCell id="IZ9sK3yoCn2Vvp_-kfGR-95" style="edgeStyle=orthogonalEdgeStyle;rounded=0;orthogonalLoop=1;jettySize=auto;html=1;exitX=1;exitY=0.5;exitDx=0;exitDy=0;entryX=1;entryY=0.5;entryDx=0;entryDy=0;" edge="1" parent="1" source="IZ9sK3yoCn2Vvp_-kfGR-82" target="IZ9sK3yoCn2Vvp_-kfGR-80">
          <mxGeometry relative="1" as="geometry" />
        </mxCell>
        <mxCell id="IZ9sK3yoCn2Vvp_-kfGR-82" value="Temporary &lt;br&gt;Passwords Match" style="rhombus;whiteSpace=wrap;html=1;" vertex="1" parent="1">
          <mxGeometry x="170" y="-240" width="140" height="140" as="geometry" />
        </mxCell>
        <mxCell id="IZ9sK3yoCn2Vvp_-kfGR-77" value="" style="ellipse;whiteSpace=wrap;html=1;aspect=fixed;fillColor=#808080;" vertex="1" parent="1">
          <mxGeometry x="75" y="-500" width="30" height="30" as="geometry" />
        </mxCell>
      </root>
    </mxGraphModel>
  </diagram>
</mxfile>
